# xmcd
#
# Track frame offsets: 
#        150
#        12097
#        31731
#        48288
#        66955
#        85799
#        104497
#        116401
#        132298
#        150615
#        162875
#        180136
#        199724
#        218963
#        236293
#        255227
#        276556
#        288560
#        302821
#        332510
#
# Disc length: 4663 seconds
#
# Revision: 0
# Processed by: cddbd v1.5.2PL0 Copyright (c) Steve Scherf et al.
# Submitted via: ExactAudioCopy v0.95b4
#
DISCID=09123514
DTITLE=Various Artist - Wide Awake 3
DYEAR=2007
DGENRE=Alternative
TTITLE0=Ryan Adams - Two
TTITLE1=Freddy Johnston - Arriving On A Train
TTITLE2=Ron Sexsmith - Cold Hearted Wind
TTITLE3=Sparklehorse - Shade And Honey
TTITLE4=Ezio - Holding You Now
TTITLE5=Wilco - Leave Me (Like You Found Me)
TTITLE6=Elliott Smith - Angel In The Snow
TTITLE7=Anna Ternheim - Today Is Such A Good Day
TTITLE8=Rufus Wainwright - Going to a Town
TTITLE9=Lloyd Cole - The Young Idealists
TTITLE10=Dirk Darmstaedter - We Beat The Drum
TTITLE11=Tess Wiley - Tenderness And Love
TTITLE12=Maria Taylor - Small Part Of Me
TTITLE13=Salim Nourallah - Don't Be Afraid
TTITLE14=Tom McRae - One Mississippi
TTITLE15=Keren Ann - Lay Your Head Down (Single Version)
TTITLE16=Laura Veirs - Through The Glow
TTITLE17=Men Among Animals - I'm An Architect
TTITLE18=Damien Rice - Accidental Babies
TTITLE19=The Elephants - Splinter Song
EXTD=
EXTT0=
EXTT1=
EXTT2=
EXTT3=
EXTT4=
EXTT5=
EXTT6=
EXTT7=
EXTT8=
EXTT9=
EXTT10=
EXTT11=
EXTT12=
EXTT13=
EXTT14=
EXTT15=
EXTT16=
EXTT17=
EXTT18=
EXTT19=
PLAYORDER=
